<svg fill="none" height="20" viewBox="0 0 20 20" width="20" xmlns="http://www.w3.org/2000/svg"><circle cx="10" cy="10" fill="#3c4767" r="10"/><path d="m10.3137 3.896c.156.168.51.492 1.062.972.564.48 1.062.924 1.494 1.332s.834.93 1.206 1.566.558 1.254.558 1.854c0 1.152-.702 2.196-2.106 3.132-.204.144-.384.108-.54-.108-.144-.204-.12-.384.072-.54.6-.456.996-.84 1.188-1.152.204-.324.306-.708.306-1.152 0-.564-.294-1.158-.882-1.782-.576-.636-1.404-1.194-2.484-1.674-.036-.012-.072-.006-.108.018-.024.024-.036.054-.036.09v8.028c0 .852-.23997 1.518-.71997 1.998-.48.468-1.14.702-1.98.702-.576 0-1.05-.15-1.422-.45-.372-.312-.558-.702-.558-1.17 0-.588.234-1.08.702-1.476s1.074-.594 1.818-.594c.384 0 .756.066 1.116.198h.036c.012-.012.018-.024.018-.036v-9.648c0-.132.048-.246.144-.342.096-.108.21-.162.342-.162.276 0 .53397.132.77397.396z" fill="#a1b9ce"/></svg>